# xmcd
#
# Track frame offsets: 
#        150
#        16331
#        28469
#        53418
#        68564
#        88726
#        103134
#        125237
#        144062
#        156350
#        182182
#        201657
#        219707
#        233132
#        248257
#        262070
#
# Disc length: 3672 seconds
#
# Revision: 0
# Processed by: cddbd v1.5.2PL0 Copyright (c) Steve Scherf et al.
# Submitted via: ExactAudioCopy v0.99pb4
#
DISCID=ea0e5610
DTITLE=Various Artist - Love_You_Forever_4
DYEAR=2008
DGENRE=Blues
TTITLE0=什锦菜
TTITLE1=只有你
TTITLE2=天堂里的另一天
TTITLE3=因为爱你
TTITLE4=此情可待
TTITLE5=寂静之声
TTITLE6=至高无上的爱
TTITLE7=我的男人
TTITLE8=离家500里
TTITLE9=你是我的一切
TTITLE10=我该如何告诉他
TTITLE11=温森特
TTITLE12=雨滴不断落在我头上
TTITLE13=南加州从不下雨
TTITLE14=友谊地久天长
TTITLE15=月亮河
EXTD=
EXTT0=
EXTT1=
EXTT2=
EXTT3=
EXTT4=
EXTT5=
EXTT6=
EXTT7=
EXTT8=
EXTT9=
EXTT10=
EXTT11=
EXTT12=
EXTT13=
EXTT14=
EXTT15=
PLAYORDER=
